<?xml version="1.0" standalone="no"?>
<!DOCTYPE svg PUBLIC "-//W3C//DTD SVG 20010904//EN"
 "http://www.w3.org/TR/2001/REC-SVG-20010904/DTD/svg10.dtd">
<svg version="1.0" xmlns="http://www.w3.org/2000/svg"
 width="64.000000pt" height="64.000000pt" viewBox="0 0 64.000000 64.000000"
 preserveAspectRatio="xMidYMid meet">
<metadata>
Created by potrace 1.16, written by Peter Selinger 2001-2019
</metadata>
<g transform="translate(0.000000,64.000000) scale(0.100000,-0.100000)"
fill="#000000" stroke="none">
<path d="M28 574 c-12 -12 -10 -422 2 -429 6 -3 48 -10 94 -15 50 -5 100 -17
125 -29 22 -12 43 -21 46 -21 3 0 5 101 5 225 l0 225 -42 22 c-32 16 -66 23
-133 26 -50 2 -93 1 -97 -4z"/>
<path d="M430 571 c-14 -5 -40 -16 -58 -25 l-32 -17 0 -224 c0 -124 2 -225 5
-225 2 0 22 9 44 21 24 12 73 24 127 29 65 7 92 14 101 27 16 21 18 374 3 404
-9 16 -21 19 -88 18 -42 0 -88 -4 -102 -8z"/>
</g>
</svg>
