<?xml version="1.0" standalone="no"?>
<!DOCTYPE svg PUBLIC "-//W3C//DTD SVG 20010904//EN"
 "http://www.w3.org/TR/2001/REC-SVG-20010904/DTD/svg10.dtd">
<svg version="1.0" xmlns="http://www.w3.org/2000/svg"
 width="64.000000pt" height="64.000000pt" viewBox="0 0 64.000000 64.000000"
 preserveAspectRatio="xMidYMid meet">
<metadata>
Created by potrace 1.16, written by Peter Selinger 2001-2019
</metadata>
<g transform="translate(0.000000,64.000000) scale(0.100000,-0.100000)"
fill="#000000" stroke="none">
<path d="M52 547 c-20 -21 -22 -34 -22 -153 0 -123 1 -132 23 -152 13 -12 31
-22 40 -22 10 0 21 -14 28 -40 7 -22 18 -40 26 -40 7 0 36 18 64 40 28 22 54
40 59 40 5 0 11 18 15 39 11 64 31 75 151 79 l104 4 0 92 c0 84 -2 95 -23 114
-22 21 -31 22 -233 22 -207 0 -211 0 -232 -23z"/>
<path d="M311 306 c-8 -9 -11 -43 -9 -93 3 -69 5 -79 25 -88 12 -5 24 -20 28
-32 7 -30 26 -29 63 2 26 21 40 25 99 25 40 0 74 5 81 12 16 16 16 160 0 176
-18 18 -272 17 -287 -2z"/>
</g>
</svg>
