<svg width="75" height="116" viewBox="0 0 75 116" fill="none" xmlns="http://www.w3.org/2000/svg">
<path d="M71.9164 97.746C62.4048 106.356 49.7984 111.606 35.9878 111.606C23.2846 111.606 11.5996 107.164 2.40492 99.7504C2.21318 100.039 2.01875 100.33 1.8216 100.622C0.969753 101.887 0.800012 104.492 0.902738 107.161C1.08419 111.875 5.76907 115.3 11.1415 115.3H64.4857C69.8585 115.3 74.5436 111.875 74.7249 107.16C74.8274 104.491 74.6578 101.887 73.8066 100.622C73.1464 99.6424 72.5167 98.6849 71.9164 97.746Z" fill="white"/>
<path d="M66.1093 85.8066C58.8707 93.4977 48.6028 98.3069 37.2333 98.3069C26.7108 98.3069 17.1322 94.1879 10.0253 87.4777C8.95489 89.8319 7.69606 92.204 6.22559 94.6801C14.477 101.529 25.0689 105.651 36.6056 105.651C49.3022 105.651 60.8544 100.658 69.4017 92.532C68.128 90.2441 67.0371 88.0265 66.1093 85.8066Z" fill="white"/>
<path d="M61.3939 65.1408C58.5654 75.9583 48.7072 83.9649 37.0171 83.9649C27.15 83.9649 18.5889 78.2617 14.4575 69.9788C13.9923 74.1186 13.2249 77.8374 12.0762 81.4287C18.242 88.1609 27.0996 92.3887 36.9267 92.3887C47.7396 92.3887 57.3791 87.2702 63.5504 79.329C62.3647 75.0176 61.6892 70.4493 61.3939 65.1408Z" fill="white"/>
<path d="M37.8132 77.9679C27.2078 77.9679 18.5801 69.3368 18.5801 58.7313C18.5801 48.1259 27.2078 39.4982 37.8132 39.4982C48.4187 39.4982 57.0464 48.1259 57.0464 58.7313C57.0464 69.3368 48.4187 77.9679 37.8132 77.9679Z" fill="white"/>
<path d="M12.3467 35.3493C18.4987 28.8002 27.2327 24.7037 36.9054 24.7037C47.5732 24.7037 57.0996 29.6864 63.2797 37.4465C62.164 41.8098 61.552 46.4663 61.3124 51.9035C58.4065 41.2003 48.6043 33.3057 36.9958 33.3057C27.2266 33.3057 18.7376 38.8958 14.5604 47.0456C14.1487 42.7913 13.4377 38.9926 12.3467 35.3493Z" fill="white"/>
<path d="M69.4013 23.5043C67.9596 26.0942 66.752 28.594 65.7501 31.1091C58.533 23.6378 48.4159 18.9852 37.233 18.9852C26.9043 18.9852 17.485 22.9539 10.4202 29.4464C9.2681 26.7995 7.88094 24.1438 6.22559 21.3562C14.477 14.5075 25.0688 10.3854 36.6054 10.3854C49.3019 10.3854 60.854 15.3785 69.4013 23.5043Z" fill="white"/>
<path d="M71.9158 18.2797C62.4043 9.67083 49.7982 4.42086 35.9878 4.42086C23.2852 4.42086 11.6006 8.86329 2.40609 16.276C2.21398 15.9866 2.01916 15.6954 1.8216 15.402C0.969713 14.1381 0.799996 11.5333 0.902753 8.86414C1.08425 4.14958 5.76916 0.724884 11.1417 0.724884H64.4855C69.8585 0.724884 74.5436 4.1501 74.7248 8.86504C74.8275 11.5339 74.6578 14.1382 73.8066 15.402C73.1461 16.3826 72.5163 17.3404 71.9158 18.2797Z" fill="white"/>
</svg>
