<svg width="74" height="100" viewBox="0 0 74 100" fill="none" xmlns="http://www.w3.org/2000/svg">
<g opacity="0.2">
<path d="M53.4076 85.8704C44.6805 90.5224 34.2699 92.082 23.9444 89.4902C14.4468 87.1062 6.54415 81.5919 1.0609 74.3239C0.863353 74.5038 0.663441 74.6846 0.461112 74.8664C-0.413065 75.6519 -1.02878 77.5674 -1.45287 79.5822C-2.20197 83.1411 0.658003 86.5807 4.67474 87.589L44.5577 97.6C48.5748 98.6083 52.7204 96.9268 53.7407 93.4357C54.3183 91.4597 54.6801 89.4808 54.281 88.3758C53.9713 87.5191 53.6802 86.6851 53.4076 85.8704Z" fill="#080808"/>
<path d="M51.3065 75.8538C44.4511 80.2456 35.8717 81.9143 27.3713 79.7806C19.5041 77.8058 13.1156 72.9287 9.06144 66.578C7.81932 68.1373 6.43298 69.6745 4.86889 71.2498C9.7528 77.9189 16.8983 82.9887 25.5237 85.1538C35.0164 87.5365 44.5905 85.9713 52.5059 81.5C51.983 79.5504 51.5835 77.6877 51.3065 75.8538Z" fill="#080808"/>
<path d="M51.6597 59.5181C47.5149 67.075 38.6417 71.2111 29.9016 69.0172C22.5244 67.1655 17.194 61.2948 15.6596 54.3267C14.5349 57.3346 13.2632 59.9709 11.7304 62.4404C15.0768 68.6309 20.9059 73.4541 28.2532 75.2984C36.3374 77.3276 44.505 75.3098 50.6094 70.5307C50.532 67.0847 50.8843 63.5424 51.6597 59.5181Z" fill="#080808"/>
<path d="M31.6221 64.6833C23.6929 62.693 18.8621 54.6207 20.8524 46.6915C22.8428 38.7623 30.9125 33.9309 38.8417 35.9212C46.7709 37.9116 51.6023 45.9813 49.612 53.9105C47.6217 61.8397 39.5513 66.6736 31.6221 64.6833Z" fill="#080808"/>
<path d="M20.5803 28.0396C26.4089 24.2976 33.7077 22.874 40.9396 24.6892C48.9154 26.6913 55.1027 32.2044 58.2669 39.1661C56.614 42.219 55.2825 45.5856 54.083 49.6058C53.919 41.0581 48.072 33.3161 39.3928 31.1376C32.0888 29.3042 24.6929 31.8905 20.0404 37.1998C20.5309 33.9418 20.7123 30.9683 20.5803 28.0396Z" fill="#080808"/>
<path d="M65.4591 29.8908C63.8951 31.5566 62.5231 33.199 61.302 34.8914C57.3083 27.951 50.6173 22.5738 42.2564 20.4751C34.5341 18.5367 26.747 19.7362 20.2464 23.2645C19.8818 21.0694 19.3431 18.8235 18.6286 16.4286C26.0831 12.8568 34.7757 11.7626 43.4011 13.9277C52.8937 16.3104 60.5936 22.2115 65.4591 29.8908Z" fill="#080808"/>
<path d="M68.3207 26.4569C62.825 18.2354 54.3852 11.9445 44.0598 9.35272C34.5627 6.96883 24.993 8.0974 16.7275 11.914C16.6382 11.6616 16.5472 11.4073 16.4545 11.1509C16.0548 10.046 16.4167 8.06673 16.9945 6.09037C18.015 2.59957 22.1604 0.9183 26.1772 1.92656L66.0599 11.9376C70.077 12.9459 72.937 16.386 72.1877 19.9452C71.7636 21.9599 71.148 23.8751 70.2744 24.6603C69.5966 25.2694 68.9459 25.8673 68.3207 26.4569Z" fill="#080808"/>
</g>
</svg>
