<svg width="30" height="47" viewBox="0 0 30 47" fill="none" xmlns="http://www.w3.org/2000/svg">
<path d="M24.4337 26.1259C23.2857 30.5161 19.2848 33.7656 14.5404 33.7656C10.5359 33.7656 7.06143 31.4509 5.38471 28.0893C5.19591 29.7695 4.88444 31.2787 4.41825 32.7362C6.92061 35.4685 10.5155 37.1843 14.5038 37.1843C18.8921 37.1843 22.8043 35.107 25.3089 31.8841C24.8277 30.1343 24.5535 28.2803 24.4337 26.1259Z" fill="#FFD549"/>
<path d="M26.223 34.5282C23.2852 37.6496 19.118 39.6014 14.5038 39.6014C10.2332 39.6014 6.34582 37.9297 3.46151 35.2064C3.02708 36.1619 2.51619 37.1245 1.9194 38.1295C5.26822 40.9091 9.56691 42.582 14.249 42.582C19.4019 42.582 24.0903 40.5556 27.5592 37.2577C27.0423 36.3291 26.5995 35.4291 26.223 34.5282Z" fill="#178029"/>
<path d="M27.5591 9.24268C26.974 10.2938 26.4839 11.3083 26.0773 12.3291C23.1483 9.29688 19.0423 7.40863 14.5038 7.40863C10.3119 7.40863 6.48911 9.0193 3.62185 11.6543C3.15429 10.58 2.59132 9.50222 1.9195 8.37087C5.26831 5.59137 9.56695 3.91843 14.249 3.91843C19.4019 3.91843 24.0903 5.94487 27.5591 9.24268Z" fill="#178029"/>
<path d="M28.8305 39.3759C24.9703 42.87 19.854 45.0009 14.249 45.0009C9.09349 45.0009 4.35118 43.198 0.619538 40.1894C0.541723 40.3066 0.462815 40.4245 0.382803 40.5433C0.0370825 41.0565 -0.0318062 42.1136 0.00988466 43.1968C0.0835268 45.1101 1.98487 46.5 4.16526 46.5H25.8148C27.9953 46.5 29.8968 45.1099 29.9703 43.1964C30.012 42.1133 29.9431 41.0564 29.5976 40.5433C29.3297 40.1455 29.0741 39.757 28.8305 39.3759Z" fill="#FA534A"/>
<path d="M28.8303 7.12455C24.9701 3.63068 19.8539 1.5 14.249 1.5C9.09371 1.5 4.35159 3.30294 0.620016 6.31136C0.542046 6.19392 0.462979 6.07571 0.382803 5.95667C0.0370661 5.44369 -0.0318129 4.38657 0.00989038 3.30329C0.0835502 1.3899 1.9849 0 4.16532 0H25.8147C27.9953 0 29.8967 1.39011 29.9703 3.30365C30.012 4.38681 29.9431 5.44375 29.5976 5.95667C29.3296 6.35461 29.074 6.74334 28.8303 7.12455Z" fill="#FA534A"/>
<path d="M4.53669 14.1466C7.03345 11.4887 10.5781 9.82616 14.5038 9.82616C18.8332 9.82616 22.6995 11.8484 25.2077 14.9978C24.7549 16.7686 24.5065 18.6585 24.4092 20.8651C23.2299 16.5212 19.2517 13.3173 14.5404 13.3173C10.5756 13.3173 7.13041 15.586 5.43513 18.8935C5.26804 17.1669 4.97949 15.6253 4.53669 14.1466Z" fill="#FFD549"/>
<path d="M14.5404 31.3485C10.2362 31.3485 6.73472 27.8456 6.73472 23.5414C6.73472 19.2372 10.2362 15.7357 14.5404 15.7357C18.8446 15.7357 22.3461 19.2372 22.3461 23.5414C22.3461 27.8456 18.8446 31.3485 14.5404 31.3485Z" fill="#FA534A"/>
</svg>
