<svg width="80" height="80" viewBox="0 0 80 80" fill="none" xmlns="http://www.w3.org/2000/svg">
<path d="M80 39.9761C79.9578 33.6178 74.9763 28.4452 68.7023 28.108C70.7308 25.849 71.7564 23 71.7564 20.1426C71.7255 17.1138 70.5932 14.0231 68.2696 11.6995C63.7432 7.23215 56.5645 7.09724 51.8892 11.2977C51.7262 8.26606 50.4366 5.52664 48.4164 3.50367C46.2529 1.38236 43.2662 0 39.9789 0C33.6207 0.0421454 28.448 5.02371 28.1108 11.2977C25.8519 9.26913 23.0029 8.24358 20.1454 8.24358C17.1166 8.2745 14.026 9.4068 11.6995 11.7304C7.23212 16.2568 7.09728 23.4355 11.2977 28.1109C5.02373 28.448 0.0421454 33.6178 0 39.979C0 43.2663 1.3852 46.253 3.50369 48.4164C5.52386 50.4366 8.26611 51.7262 11.2977 51.8891C7.10005 56.5645 7.23212 63.7432 11.6995 68.2696C14.026 70.596 17.1138 71.7283 20.1426 71.7564C23.0001 71.7564 25.8491 70.728 28.1081 68.7022C28.4452 74.9764 33.615 79.9579 39.9761 80.0001C43.2635 80.0001 46.2502 78.6146 48.4136 76.4965C50.4338 74.4765 51.7234 71.7339 51.8863 68.7022C56.5617 72.9026 63.7404 72.768 68.2668 68.3005C70.5932 65.9741 71.7255 62.8862 71.7536 59.8574C71.7536 57 70.7252 54.1509 68.6995 51.892C71.7311 51.729 74.4735 50.4394 76.4935 48.4192C78.6146 46.2557 79.9971 43.269 79.9971 39.9817L80 39.9761Z" fill="#FFD549"/>
</svg>
