<svg width="81" height="81" viewBox="0 0 81 81" fill="none" xmlns="http://www.w3.org/2000/svg">
<path d="M80.5 40.0383C80.4578 33.68 75.4763 28.5074 69.2023 28.1702C71.2308 25.9112 72.2564 23.0622 72.2564 20.2048C72.2255 17.176 71.0932 14.0853 68.7696 11.7617C64.2432 7.29434 57.0645 7.15943 52.3892 11.3599C52.2262 8.32826 50.9366 5.58883 48.9164 3.56587C46.7529 1.44456 43.7662 0.0621948 40.4789 0.0621948C34.1207 0.10434 28.948 5.0859 28.6108 11.3599C26.3519 9.33132 23.5029 8.30577 20.6454 8.30577C17.6166 8.3367 14.526 9.46899 12.1995 11.7926C7.73212 16.319 7.59728 23.4977 11.7977 28.1731C5.52373 28.5102 0.542145 33.68 0.5 40.0412C0.5 43.3285 1.8852 46.3152 4.00369 48.4786C6.02386 50.4988 8.76611 51.7884 11.7977 51.9513C7.60005 56.6267 7.73212 63.8054 12.1995 68.3318C14.526 70.6582 17.6138 71.7905 20.6426 71.8186C23.5001 71.8186 26.3491 70.7902 28.6081 68.7644C28.9452 75.0386 34.115 80.0201 40.4761 80.0623C43.7635 80.0623 46.7502 78.6768 48.9136 76.5587C50.9338 74.5387 52.2234 71.7961 52.3863 68.7644C57.0617 72.9648 64.2404 72.8302 68.7668 68.3627C71.0932 66.0363 72.2255 62.9484 72.2536 59.9196C72.2536 57.0622 71.2252 54.2131 69.1995 51.9542C72.2311 51.7912 74.9735 50.5016 76.9935 48.4814C79.1146 46.3179 80.4971 43.3312 80.4971 40.0439L80.5 40.0383Z" fill="#178029"/>
</svg>
