<svg width="81" height="81" viewBox="0 0 81 81" fill="none" xmlns="http://www.w3.org/2000/svg">
<path d="M80.5 40.1005C80.4578 33.7421 75.4763 28.5695 69.2023 28.2324C71.2308 25.9734 72.2564 23.1243 72.2564 20.2669C72.2255 17.2381 71.0932 14.1475 68.7696 11.8238C64.2432 7.35647 57.0645 7.22157 52.3892 11.4221C52.2262 8.39039 50.9366 5.65097 48.9164 3.628C46.7529 1.50669 43.7662 0.124329 40.4789 0.124329C34.1207 0.166474 28.948 5.14804 28.6108 11.4221C26.3519 9.39345 23.5029 8.36791 20.6454 8.36791C17.6166 8.39883 14.526 9.53113 12.1995 11.8547C7.73212 16.3811 7.59728 23.5598 11.7977 28.2352C5.52373 28.5723 0.542145 33.7421 0.5 40.1033C0.5 43.3906 1.8852 46.3773 4.00369 48.5407C6.02386 50.5609 8.76611 51.8505 11.7977 52.0135C7.60005 56.6888 7.73212 63.8675 12.1995 68.3939C14.526 70.7204 17.6138 71.8527 20.6426 71.8807C23.5001 71.8807 26.3491 70.8524 28.6081 68.8266C28.9452 75.1007 34.115 80.0822 40.4761 80.1244C43.7635 80.1244 46.7502 78.739 48.9136 76.6208C50.9338 74.6008 52.2234 71.8583 52.3863 68.8266C57.0617 73.0269 64.2404 72.8923 68.7668 68.4249C71.0932 66.0984 72.2255 63.0106 72.2536 59.9817C72.2536 57.1243 71.2252 54.2753 69.1995 52.0163C72.2311 51.8534 74.9735 50.5637 76.9935 48.5435C79.1146 46.3801 80.4971 43.3934 80.4971 40.1061L80.5 40.1005Z" fill="#FA534A"/>
</svg>
