<?xml version="1.0" standalone="no"?>
<!DOCTYPE svg PUBLIC "-//W3C//DTD SVG 20010904//EN"
 "http://www.w3.org/TR/2001/REC-SVG-20010904/DTD/svg10.dtd">
<svg version="1.0" xmlns="http://www.w3.org/2000/svg"
 width="64.000000pt" height="64.000000pt" viewBox="0 0 64.000000 64.000000"
 preserveAspectRatio="xMidYMid meet">
<metadata>
Created by potrace 1.16, written by Peter Selinger 2001-2019
</metadata>
<g transform="translate(0.000000,64.000000) scale(0.100000,-0.100000)"
fill="#000000" stroke="none">
<path d="M91 612 c-19 -9 -44 -30 -55 -45 -20 -27 -21 -42 -21 -247 0 -205 1
-220 21 -247 42 -57 69 -63 284 -63 215 0 242 6 284 63 20 27 21 42 21 247 0
205 -1 220 -21 247 -42 57 -69 63 -284 63 -166 0 -200 -3 -229 -18z m439 -37
c54 -28 60 -55 60 -255 0 -272 2 -270 -270 -270 -272 0 -270 -2 -270 270 0
272 -3 269 268 270 145 0 189 -3 212 -15z"/>
<path d="M111 516 c-9 -11 6 -36 73 -119 l85 -105 -60 -76 c-56 -70 -69 -106
-40 -106 6 0 36 31 67 70 31 38 59 70 63 70 3 -1 30 -32 60 -70 l54 -70 52 0
c88 0 87 13 -9 133 l-85 105 60 76 c56 70 69 106 40 106 -6 0 -36 -31 -67 -70
-31 -38 -59 -70 -63 -70 -3 1 -30 32 -60 70 l-54 70 -52 0 c-32 0 -57 -5 -64
-14z m209 -172 c164 -207 155 -194 133 -194 -11 1 -62 56 -133 146 -164 207
-155 194 -133 194 11 -1 62 -56 133 -146z"/>
</g>
</svg>
